<svg xmlns="http://www.w3.org/2000/svg" width="1.5em" height="1.5em" viewBox="0 0 32 32">
    <g stroke-width="1" stroke="#4a6b8a">
        <!-- 帐篷顶部 - 淡紫色 -->
        <path fill="#d8c7ff" d="M27.737 12.244c.868-.025 1.375.457.872 1.165c-.707.995-1.627 1.78-2.763 2.151l-.592-1.509A1.62 1.62 0 0 0 23.726 13h-4.284a5.2 5.2 0 0 1-.624-2.492c0-2.09 1.59-3.763 3.306-4.694c.763-.414 1.298.133 1.17.991c-.01.07-.03.168-.05.277c-.045.231-.1.51-.1.665c0 2.485 1.978 4.498 4.463 4.498q.066 0 .13-.002"/>

        <!-- 帐篷主体 - 淡蓝色 -->
        <path fill="#b8d8f8" d="M8.296 14a1 1 0 0 0-.4.16l.003.008a.6.6 0 0 0-.211.282L2.07 28.766c-.252.58.208 1.234.875 1.234H9.08V17.177l4.521 11.502a2.085 2.085 0 0 0 1.957 1.32h13.489c.667 0 1.126-.667.889-1.277l-5.618-14.316a.62.62 0 0 0-.593-.406z"/>

        <!-- 帐篷门 - 更深的蓝色 -->
        <path fill="#8fb3d9" d="M18.005 22.624a.95.95 0 0 1-.875-.58l-1.245-3.064c-.252-.61.207-1.263.874-1.263h2.98a.95.95 0 0 1 .874.58l1.245 3.064c.252.61-.207 1.263-.874 1.263z"/>
    </g>

    <!-- 装饰元素 - 小星星改为柔和的月光 -->
    <g fill="#f0f5ff">
        <circle cx="6" cy="6" r="1.5"/>
        <circle cx="26" cy="4" r="1"/>
        <circle cx="18" cy="8" r="0.8"/>
    </g>
</svg>