<svg xmlns="http://www.w3.org/2000/svg" viewBox="0 0 64 64" class="w-8 h-8 ">
    <!-- 碎石组合 -->
    <g class="fill-current">
        <!-- 主碎石 -->
        <path d="M18 28a4 4 0 0 1 6-3.8 4 4 0 0 1 5.6 5.2 4 4 0 1 1-7.6 1.8"
              class="text-stone-700 drop-shadow-sm"/>

        <!-- 散落沙砾 -->
        <path d="M40 38a2 2 0 1 0-3.4-2.1 2 2 0 0 0 3.4 2.1"
              class="text-stone-600"/>
        <path d="M46 44a1.5 1.5 0 1 1-2.6-1.5 1.5 1.5 0 0 1 2.6 1.5"
              class="text-stone-500"/>
        <path d="M32 50a1.2 1.2 0 1 0-2.1-1.3 1.2 1.2 0 0 0 2.1 1.3"
              class="text-stone-400"/>
    </g>

    <!-- 动态阴影 -->
    <path d="M18 28l-2-4" class="fill-none stroke-stone-200 opacity-40"/>
</svg>