<svg xmlns="http://www.w3.org/2000/svg" width="1em" height="1em" viewBox="0 0 24 24">
    <defs>
        <linearGradient id="volumeGradient" x1="0%" y1="0%" x2="100%" y2="0%">
            <stop offset="0%" style="stop-color:#ffd1dc;stop-opacity:1" />
            <stop offset="50%" style="stop-color:#e6e6fa;stop-opacity:1" />
            <stop offset="100%" style="stop-color:#b0e0e6;stop-opacity:1" />
        </linearGradient>
    </defs>
    <path fill="none" stroke="url(#volumeGradient)" stroke-linecap="round" stroke-linejoin="round" stroke-width="2" d="M15 8a5 5 0 0 1 0 8m2.7-11a9 9 0 0 1 0 14M6 15H4a1 1 0 0 1-1-1v-4a1 1 0 0 1 1-1h2l3.5-4.5A.8.8 0 0 1 11 5v14a.8.8 0 0 1-1.5.5z"/>
</svg>